<svg viewBox="0 0 48 48" xmlns="http://www.w3.org/2000/svg">
  <path d="M38.16 11.28A35.38 35.38 0 0 0 29.4 8.6a.13.13 0 0 0-.14.07c-.38.68-.8 1.56-1.1 2.26a32.66 32.66 0 0 0-9.82 0 22.57 22.57 0 0 0-1.12-2.26.14.14 0 0 0-.14-.07 35.3 35.3 0 0 0-8.76 2.68.12.12 0 0 0-.06.05C3.52 18.56 2.18 25.58 2.84 32.52a.15.15 0 0 0 .06.1 35.56 35.56 0 0 0 10.72 5.36.14.14 0 0 0 .15-.05 25.2 25.2 0 0 0 2.18-3.54.13.13 0 0 0-.08-.19 23.42 23.42 0 0 1-3.34-1.58.14.14 0 0 1-.01-.23c.22-.17.45-.34.66-.52a.13.13 0 0 1 .14-.02c7 3.2 14.58 3.2 21.5 0a.13.13 0 0 1 .14.01c.22.18.44.36.67.53a.14.14 0 0 1-.01.23 21.94 21.94 0 0 1-3.34 1.57.14.14 0 0 0-.07.19c.64 1.24 1.36 2.42 2.18 3.54a.13.13 0 0 0 .15.05 35.44 35.44 0 0 0 10.74-5.36.14.14 0 0 0 .06-.1c.78-8.1-1.32-15.06-5.54-21.2a.11.11 0 0 0-.06-.05zM17.34 28.78c-1.84 0-3.36-1.7-3.36-3.78s1.48-3.78 3.36-3.78c1.9 0 3.4 1.72 3.36 3.78 0 2.08-1.48 3.78-3.36 3.78zm12.42 0c-1.84 0-3.36-1.7-3.36-3.78s1.48-3.78 3.36-3.78c1.9 0 3.4 1.72 3.36 3.78 0 2.08-1.46 3.78-3.36 3.78z" fill="#5865F2"/>
</svg>
