<svg viewBox="0 0 48 48" xmlns="http://www.w3.org/2000/svg">
  <path d="M24 4C12.96 4 4 12.96 4 24c0 8.84 5.74 16.34 13.7 18.98 1 .18 1.38-.44 1.38-.96 0-.48-.02-2.06-.02-3.74-5.02.92-6.32-1.22-6.72-2.34-.22-.58-1.2-2.34-2.04-2.82-.7-.38-1.7-1.3-.02-1.32 1.56-.02 2.68 1.44 3.06 2.04 1.78 3 4.64 2.16 5.78 1.64.18-1.28.7-2.16 1.28-2.66-4.48-.5-9.16-2.24-9.16-9.92 0-2.18.78-3.98 2.06-5.4-.2-.5-.9-2.56.2-5.32 0 0 1.68-.54 5.5 2.06 1.6-.44 3.3-.66 5-.66s3.4.22 5 .66c3.82-2.62 5.5-2.06 5.5-2.06 1.1 2.76.4 4.82.2 5.32 1.28 1.42 2.06 3.2 2.06 5.4 0 7.7-4.7 9.42-9.18 9.92.72.62 1.34 1.82 1.34 3.7 0 2.68-.02 4.82-.02 5.5 0 .52.38 1.16 1.38.96C38.26 40.34 44 32.82 44 24c0-11.04-8.96-20-20-20z" fill="#24292f"/>
</svg>
