<svg viewBox="0 0 48 48" xmlns="http://www.w3.org/2000/svg">
  <path d="M33.6 14.4H14.4v19.2h19.2z" fill="#fff"/>
  <path d="M33.6 42L42 33.6V14.4L33.6 6z" fill="#EA4335"/>
  <path d="M10.2 42h23.4v-8.4H6v4.2A4.2 4.2 0 0 0 10.2 42z" fill="#34A853"/>
  <path d="M42 14.4H6V10.2A4.2 4.2 0 0 1 10.2 6h27.6A4.2 4.2 0 0 1 42 10.2z" fill="#4285F4"/>
  <path d="M33.6 33.6H42V14.4h-8.4z" fill="#FBBC04"/>
  <path d="M6 14.4v19.2h8.4V14.4z" fill="#188038"/>
  <path d="M14.4 33.6v8.4h19.2v-8.4z" fill="#1967D2" opacity=".2"/>
  <path d="M33.6 14.4v19.2H42L33.6 14.4z" fill="#EA4335" opacity=".2"/>
  <path d="M18.84 29.28c-.72-.48-1.22-1.18-1.5-2.08l1.68-.7c.16.58.44 1.04.84 1.36.4.32.86.48 1.4.48.56 0 1.04-.18 1.44-.52.4-.34.6-.78.6-1.3 0-.54-.2-.98-.62-1.32-.42-.34-.94-.52-1.56-.52h-.96v-1.64h.86c.54 0 .98-.16 1.34-.46.36-.3.54-.7.54-1.2s-.18-.88-.52-1.18c-.34-.3-.78-.44-1.3-.44-.52 0-.92.14-1.24.44-.32.3-.54.66-.66 1.08l-1.66-.7c.2-.68.62-1.26 1.28-1.76.66-.5 1.44-.74 2.34-.74.66 0 1.26.14 1.78.4.52.26.94.64 1.24 1.12.3.48.46 1.02.46 1.62 0 .62-.14 1.14-.44 1.56-.3.42-.66.74-1.08.96v.1c.52.22.96.58 1.28 1.06.34.48.5 1.04.5 1.7 0 .64-.16 1.22-.48 1.72-.32.5-.76.9-1.34 1.18-.58.28-1.22.44-1.94.44-.86 0-1.66-.24-2.38-.72zm10.22-.1c-.54-.52-.82-1.32-.82-2.38v-6.24h1.76v6.14c0 .6.12 1.04.36 1.32.24.28.56.42.94.42.28 0 .54-.06.78-.2l.52 1.42c-.4.24-.9.36-1.5.36-.94 0-1.72-.28-2.04-.84z" fill="#4285F4"/>
  <path d="M14.4 6H6v4.2L14.4 6z" fill="#1A73E8"/>
  <path d="M6 33.6v4.2L14.4 42v-8.4z" fill="#0D652D" opacity=".2"/>
</svg>
