<svg viewBox="0 0 48 48" xmlns="http://www.w3.org/2000/svg">
  <path d="M5.53 27.2a.6.6 0 0 1-.01-.83l15.65-15.65a.6.6 0 0 1 .83.01 19.14 19.14 0 0 1 4.76 8.5.6.6 0 0 1-.16.58L14.61 31.8a.6.6 0 0 1-.58.16 19.14 19.14 0 0 1-8.5-4.76z" fill="#5E6AD2"/>
  <path d="M4.34 31.02a.3.3 0 0 1-.5-.14A19.1 19.1 0 0 1 4 24c0-10.56 8.56-19.12 19.12-19.12.56 0 1.12.02 1.68.07a.3.3 0 0 1 .14.5z" fill="#5E6AD2"/>
  <path d="M27.4 43.52a.3.3 0 0 1-.5.14 19.1 19.1 0 0 1-7.18-5.38.3.3 0 0 1 .02-.4l11.2-11.2a.3.3 0 0 1 .4-.02 19.1 19.1 0 0 1 5.38 7.18.3.3 0 0 1-.14.5z" fill="#5E6AD2"/>
  <path d="M39.68 37.58a.3.3 0 0 1-.42.42A19.05 19.05 0 0 1 44 24c0-10.56-8.56-19.12-19.12-19.12a19.05 19.05 0 0 1-14 5.74.3.3 0 0 1 .42-.42C16.38 5.68 22.94 4 24.88 4 36.02 4 44 11.98 44 23.12c0 1.94-1.68 8.5-4.32 14.46z" fill="#5E6AD2"/>
</svg>
