<svg viewBox="0 0 48 48" xmlns="http://www.w3.org/2000/svg" fill="none">
  <path d="M10.2 30.6a4.8 4.8 0 1 1-4.8-4.8h4.8v4.8zm2.4 0a4.8 4.8 0 1 1 9.6 0v12a4.8 4.8 0 1 1-9.6 0v-12z" fill="#E01E5A"/>
  <path d="M17.4 10.2a4.8 4.8 0 1 1 4.8-4.8v4.8h-4.8zm0 2.4a4.8 4.8 0 1 1 0 9.6H5.4a4.8 4.8 0 1 1 0-9.6h12z" fill="#36C5F0"/>
  <path d="M37.8 17.4a4.8 4.8 0 1 1 4.8 4.8h-4.8v-4.8zm-2.4 0a4.8 4.8 0 1 1-9.6 0V5.4a4.8 4.8 0 1 1 9.6 0v12z" fill="#2EB67D"/>
  <path d="M30.6 37.8a4.8 4.8 0 1 1-4.8 4.8v-4.8h4.8zm0-2.4a4.8 4.8 0 1 1 0-9.6h12a4.8 4.8 0 1 1 0 9.6h-12z" fill="#ECB22E"/>
</svg>
